<svg width="19" height="19" viewBox="0 0 19 19" fill="none" xmlns="http://www.w3.org/2000/svg">
<path d="M0.5 10.625C0.5 10.0037 1.00368 9.5 1.625 9.5H3.875C4.49632 9.5 5 10.0037 5 10.625V17.375C5 17.9963 4.49632 18.5 3.875 18.5H1.625C1.00368 18.5 0.5 17.9963 0.5 17.375V10.625Z" stroke="#5D5D5D" stroke-opacity="0.8" stroke-linecap="round" stroke-linejoin="round"/>
<path d="M7.25 6.125C7.25 5.50368 7.75368 5 8.375 5H10.625C11.2463 5 11.75 5.50368 11.75 6.125V17.375C11.75 17.9963 11.2463 18.5 10.625 18.5H8.375C7.75368 18.5 7.25 17.9963 7.25 17.375V6.125Z" stroke="#5D5D5D" stroke-opacity="0.8" stroke-linecap="round" stroke-linejoin="round"/>
<path d="M14 1.625C14 1.00368 14.5037 0.5 15.125 0.5H17.375C17.9963 0.5 18.5 1.00368 18.5 1.625V17.375C18.5 17.9963 17.9963 18.5 17.375 18.5H15.125C14.5037 18.5 14 17.9963 14 17.375V1.625Z" stroke="#5D5D5D" stroke-opacity="0.8" stroke-linecap="round" stroke-linejoin="round"/>
</svg>
