<svg width="75" height="18" viewBox="0 0 75 18" fill="none" xmlns="http://www.w3.org/2000/svg">
<path d="M15.123 13.3682H7.49414L9.41309 15.2881L7.28125 17.4199L0 10.21H15.123V13.3682ZM15.123 7.20996H0V4.05176H7.62891L5.70996 2.13281L7.84277 0L15.123 7.20996Z" fill="white"/>
<path d="M36.5527 15.21V4.04199H43.9127V5.91399H38.6647V8.61799H43.3047V10.49H38.6647V13.338H43.9127V15.21H36.5527ZM48.3065 15.21C47.6025 15.21 47.0638 15.0287 46.6905 14.666C46.3278 14.2927 46.1465 13.7647 46.1465 13.082V8.48999H44.9145V6.85799H45.5545C45.8638 6.85799 46.0718 6.78866 46.1785 6.64999C46.2958 6.50066 46.3545 6.28199 46.3545 5.99399V4.56999H48.1945V6.85799H49.9065V8.48999H48.1945V13.578H49.7785V15.21H48.3065ZM51.3628 15.21V6.85799H53.4108V8.58599H53.4908C53.5442 8.36199 53.6242 8.14866 53.7308 7.94599C53.8482 7.73266 53.9975 7.54599 54.1788 7.38599C54.3602 7.22599 54.5735 7.09799 54.8188 7.00199C55.0748 6.90599 55.3682 6.85799 55.6988 6.85799H56.1468V8.79399H55.5068C54.8135 8.79399 54.2908 8.89532 53.9388 9.09799C53.5868 9.30066 53.4108 9.63132 53.4108 10.09V15.21H51.3628ZM63.2962 15.21C62.8482 15.21 62.4909 15.082 62.2242 14.826C61.9682 14.5593 61.8082 14.2073 61.7442 13.77H61.6482C61.5096 14.314 61.2269 14.7247 60.8002 15.002C60.3736 15.2687 59.8456 15.402 59.2162 15.402C58.3629 15.402 57.7069 15.178 57.2482 14.73C56.7896 14.282 56.5602 13.6847 56.5602 12.938C56.5602 12.074 56.8696 11.434 57.4882 11.018C58.1069 10.5913 58.9869 10.378 60.1282 10.378H61.5522V9.76999C61.5522 9.30066 61.4296 8.93799 61.1842 8.68199C60.9389 8.42599 60.5442 8.29799 60.0002 8.29799C59.5202 8.29799 59.1309 8.40466 58.8322 8.61799C58.5442 8.82066 58.2989 9.06599 58.0962 9.35399L56.8802 8.26599C57.1896 7.78599 57.6002 7.40199 58.1122 7.11399C58.6242 6.81532 59.3016 6.66599 60.1442 6.66599C61.2749 6.66599 62.1336 6.92199 62.7202 7.43399C63.3069 7.94599 63.6002 8.68199 63.6002 9.64199V13.578H64.4322V15.21H63.2962ZM59.9042 13.914C60.3629 13.914 60.7522 13.8127 61.0722 13.61C61.3922 13.4073 61.5522 13.1087 61.5522 12.714V11.61H60.2402C59.1736 11.61 58.6402 11.9513 58.6402 12.634V12.906C58.6402 13.2473 58.7469 13.5033 58.9602 13.674C59.1842 13.834 59.4989 13.914 59.9042 13.914ZM65.7697 15.21V6.85799H67.8177V8.24999H67.8977C68.0684 7.80199 68.3351 7.42866 68.6977 7.12999C69.0711 6.82066 69.5831 6.66599 70.2337 6.66599C71.0977 6.66599 71.7591 6.94866 72.2177 7.51399C72.6764 8.07932 72.9057 8.88466 72.9057 9.92999V15.21H70.8577V10.138C70.8577 9.54066 70.7511 9.09266 70.5377 8.79399C70.3244 8.49532 69.9724 8.34599 69.4817 8.34599C69.2684 8.34599 69.0604 8.37799 68.8577 8.44199C68.6657 8.49532 68.4897 8.58066 68.3297 8.69799C68.1804 8.80466 68.0577 8.94332 67.9617 9.11399C67.8657 9.27399 67.8177 9.46599 67.8177 9.68999V15.21H65.7697Z" fill="white"/>
</svg>
